<?xml version="1.0" encoding="utf-8"?>
<!-- Generator: Adobe Illustrator 18.0.0, SVG Export Plug-In . SVG Version: 6.00 Build 0)  -->
<!DOCTYPE svg PUBLIC "-//W3C//DTD SVG 1.1//EN" "http://www.w3.org/Graphics/SVG/1.1/DTD/svg11.dtd">
<svg version="1.1" id="Layer_1" xmlns="http://www.w3.org/2000/svg" xmlns:xlink="http://www.w3.org/1999/xlink" x="0px" y="0px"
	 viewBox="0 0 396 396.7" enable-background="new 0 0 396 396.7" xml:space="preserve">
<rect x="-8" y="-16" fill="#FFFFFF" width="420" height="422"/>
<path fill-rule="evenodd" clip-rule="evenodd" fill="#1DA1F2" d="M197.7,87.7c77.9-0.6,77,93,77,93s10.4,76.2-73,71
	c-98.3,6.6-78-83-78-83S125.7,88.3,197.7,87.7z"/>
<path fill-rule="evenodd" clip-rule="evenodd" fill="#1DA1F2" d="M67.7,398.7h262c0,0-12.5-118.5-133-122
	C77.1,284.2,67.7,398.7,67.7,398.7z"/>
<g>
	<path fill="#FFFFFF" d="M220.5,176.9c-0.2,0.9-0.5,1.6-1.1,2c-0.5,0.4-1,0.6-1.6,0.5c-0.5-0.1-1-0.4-1.4-0.9
		c-0.4-0.5-0.6-1.3-0.6-2.2c0.2-1.4,0.4-2.8,0.5-4.2c0.2-1.4,0.3-2.8,0.5-4.2h-6.6c-0.7-0.3-1.3-0.6-1.6-1.2c-0.3-0.5-0.5-1-0.5-1.6
		c0-0.5,0.2-1.1,0.6-1.5c0.4-0.5,0.9-0.8,1.7-1h7c0.2-1.4,0.4-2.7,0.5-4.1c0.1-1.3,0.3-2.7,0.5-4h-6.6c-0.7-0.3-1.3-0.6-1.6-1.2
		c-0.3-0.5-0.5-1-0.5-1.6c0-0.5,0.2-1.1,0.6-1.5c0.4-0.5,0.9-0.8,1.7-1h7.1c0.2-1.6,0.4-3.3,0.6-4.9c0.2-1.6,0.4-3.2,0.6-4.9
		c0.3-0.8,0.7-1.3,1.2-1.7c0.5-0.3,1-0.5,1.5-0.4c0.5,0.1,0.9,0.3,1.3,0.8c0.4,0.5,0.6,1.1,0.7,2c-0.2,1.5-0.4,3-0.5,4.5
		c-0.2,1.5-0.4,3-0.5,4.5h9.8c0.2-1.6,0.4-3.3,0.6-4.9c0.2-1.6,0.4-3.2,0.6-4.9c0.3-0.8,0.7-1.3,1.2-1.7c0.5-0.3,1-0.5,1.5-0.4
		c0.5,0.1,0.9,0.3,1.3,0.8c0.4,0.5,0.6,1.1,0.7,2c-0.2,1.5-0.4,3-0.5,4.5c-0.2,1.5-0.4,3-0.5,4.5h5.5c0.8,0.1,1.5,0.5,1.9,1
		c0.4,0.5,0.6,1.1,0.6,1.7c0,0.6-0.2,1.2-0.7,1.7c-0.4,0.5-1.1,0.8-1.9,0.8h-6c-0.2,1.3-0.4,2.7-0.5,4c-0.1,1.3-0.3,2.7-0.5,4.1h5.4
		c0.8,0.1,1.5,0.5,1.9,1c0.4,0.5,0.6,1.1,0.6,1.7c0,0.6-0.2,1.2-0.7,1.7c-0.4,0.5-1.1,0.8-1.9,0.8h-5.8c-0.2,1.5-0.4,3-0.5,4.5
		c-0.2,1.5-0.4,3-0.5,4.5c-0.2,0.9-0.5,1.6-1.1,2c-0.5,0.4-1,0.6-1.6,0.5c-0.5-0.1-1-0.4-1.4-0.9c-0.4-0.5-0.6-1.3-0.6-2.2l1-8.3
		h-9.8c-0.2,1.5-0.4,3-0.6,4.5C220.8,173.9,220.7,175.4,220.5,176.9z M222.7,158.5c-0.1,1.3-0.3,2.7-0.4,4.1h9.8
		c0.2-1.4,0.3-2.7,0.5-4.1c0.2-1.3,0.3-2.7,0.5-4h-9.8C223,155.9,222.8,157.2,222.7,158.5z"/>
	<path fill="#FFFFFF" d="M158.8,176.9c-0.2,0.9-0.5,1.6-1.1,2c-0.5,0.4-1,0.6-1.6,0.5c-0.5-0.1-1-0.4-1.4-0.9
		c-0.4-0.5-0.6-1.3-0.6-2.2c0.2-1.4,0.4-2.8,0.5-4.2c0.2-1.4,0.3-2.8,0.5-4.2h-6.6c-0.7-0.3-1.3-0.6-1.6-1.2c-0.3-0.5-0.5-1-0.5-1.6
		c0-0.5,0.2-1.1,0.6-1.5c0.4-0.5,0.9-0.8,1.7-1h7c0.2-1.4,0.4-2.7,0.5-4.1c0.1-1.3,0.3-2.7,0.5-4h-6.6c-0.7-0.3-1.3-0.6-1.6-1.2
		c-0.3-0.5-0.5-1-0.5-1.6c0-0.5,0.2-1.1,0.6-1.5c0.4-0.5,0.9-0.8,1.7-1h7.1c0.2-1.6,0.4-3.3,0.6-4.9c0.2-1.6,0.4-3.2,0.6-4.9
		c0.3-0.8,0.7-1.3,1.2-1.7c0.5-0.3,1-0.5,1.5-0.4c0.5,0.1,0.9,0.3,1.3,0.8c0.4,0.5,0.6,1.1,0.7,2c-0.2,1.5-0.4,3-0.5,4.5
		c-0.2,1.5-0.4,3-0.5,4.5h9.8c0.2-1.6,0.4-3.3,0.6-4.9c0.2-1.6,0.4-3.2,0.6-4.9c0.3-0.8,0.7-1.3,1.2-1.7c0.5-0.3,1-0.5,1.5-0.4
		c0.5,0.1,0.9,0.3,1.3,0.8c0.4,0.5,0.6,1.1,0.7,2c-0.2,1.5-0.4,3-0.5,4.5c-0.2,1.5-0.4,3-0.5,4.5l5.5,0c0.8,0.1,1.5,0.5,1.9,1
		c0.4,0.5,0.6,1.1,0.6,1.7c0,0.6-0.2,1.2-0.7,1.7c-0.4,0.5-1.1,0.8-1.9,0.8h-6c-0.2,1.3-0.4,2.7-0.5,4c-0.1,1.3-0.3,2.7-0.5,4.1h5.4
		c0.8,0.1,1.5,0.5,1.9,1c0.4,0.5,0.6,1.1,0.6,1.7c0,0.6-0.2,1.2-0.7,1.7c-0.4,0.5-1.1,0.8-1.9,0.8h-5.8c-0.2,1.5-0.4,3-0.5,4.5
		c-0.2,1.5-0.4,3-0.5,4.5c-0.2,0.9-0.5,1.6-1.1,2c-0.5,0.4-1,0.6-1.6,0.5c-0.5-0.1-1-0.4-1.4-0.9c-0.4-0.5-0.6-1.3-0.6-2.2l1-8.3
		H160c-0.2,1.5-0.4,3-0.6,4.5C159.2,173.9,159,175.4,158.8,176.9z M161,158.5c-0.1,1.3-0.3,2.7-0.4,4.1h9.8c0.2-1.4,0.3-2.7,0.5-4.1
		c0.2-1.3,0.3-2.7,0.5-4h-9.8C161.3,155.9,161.2,157.2,161,158.5z"/>
</g>
<path fill-rule="evenodd" clip-rule="evenodd" fill="#FFFFFF" d="M205.3,235.3H188c-6.6,0-12-5.4-12-12V210c0-6.6,5.4-12,12-12h17.3
	c6.6,0,12,5.4,12,12v13.3C217.3,229.9,211.9,235.3,205.3,235.3z"/>
</svg>
